<?xml version="1.0" standalone="no"?><!DOCTYPE svg PUBLIC "-//W3C//DTD SVG 1.1//EN" "http://www.w3.org/Graphics/SVG/1.1/DTD/svg11.dtd">
<svg t="1628839030080" class="icon" viewBox="0 0 1024 1024" version="1.1" xmlns="http://www.w3.org/2000/svg" p-id="8873"
     width="200" height="200"><defs><style type="text/css"></style></defs><path d="M64 784a448 73.6 0 1 0 896 0 448 73.6 0 1 0-896 0Z" fill="#EBEFF3" p-id="8874"></path><path d="M282.5088 243.2h452.224a51.2 51.2 0 0 1 45.504 27.7376L908.8 520.3456v228.8a51.2 51.2 0 0 1-51.2 51.2H160a51.2 51.2 0 0 1-51.2-51.2V513.5744L237.248 270.464A51.2 51.2 0 0 1 282.496 243.2z" fill="#FFFFFF" p-id="8875"></path><path d="M734.7328 243.2a51.2 51.2 0 0 1 45.504 27.7376L908.8 520.3456v228.8a51.2 51.2 0 0 1-51.2 51.2H160a51.2 51.2 0 0 1-51.2-51.2V513.5744L237.248 270.464A51.2 51.2 0 0 1 282.496 243.2h452.224z m0 12.8h-452.224a38.4 38.4 0 0 0-32.704 18.2912l-1.2416 2.176L121.6 516.7104v232.4224a38.4 38.4 0 0 0 36.1472 38.336l2.2528 0.064H857.6a38.4 38.4 0 0 0 38.336-36.1472l0.064-2.2528V523.456l-127.1296-246.656a38.4 38.4 0 0 0-31.616-20.7232l-2.5216-0.0768z" fill="#D9D9D9" p-id="8876"></path><path d="M702.6432 278.912a51.2 51.2 0 0 1 45.4784 27.6736l96.1792 185.92a19.2 19.2 0 0 1-17.0496 28.032h-70.272v59.968a51.2 51.2 0 0 1-51.2 51.2H316.9664a51.2 51.2 0 0 1-51.2-51.2v-65.8816H190.72a19.2 19.2 0 0 1-16.9728-28.1984l95.616-180.3008a51.2 51.2 0 0 1 45.2352-27.2128h388.0448z m0 12.8H314.5984a38.4 38.4 0 0 0-32.6784 18.24l-1.2416 2.176-95.616 180.288a6.4 6.4 0 0 0 4.5056 9.3056l1.152 0.1024h75.0336a12.8 12.8 0 0 1 12.7104 11.3024l0.0896 1.4976v65.8816a38.4 38.4 0 0 0 36.1344 38.336l2.2656 0.064H705.792a38.4 38.4 0 0 0 38.3232-36.1472l0.0768-2.2528v-59.9808a12.8 12.8 0 0 1 11.3024-12.7104l1.4976-0.0896h70.2592a6.4 6.4 0 0 0 6.1184-8.2688l-0.4352-1.0624-96.192-185.92a38.4 38.4 0 0 0-31.5776-20.672l-2.5216-0.0896z" fill="#D9D9D9" p-id="8877"></path><path d="M396.8 691.2m16 0l198.4 0q16 0 16 16l0 3.712q0 16-16 16l-198.4 0q-16 0-16-16l0-3.712q0-16 16-16Z" fill="#F6F8FA" p-id="8878"></path><path d="M611.2 684.8h-198.4a22.4 22.4 0 0 0-22.4 22.4v3.712c0 12.3776 10.0352 22.4 22.4 22.4h198.4a22.4 22.4 0 0 0 22.4-22.4v-3.712A22.4 22.4 0 0 0 611.2 684.8z m-198.4 12.8h198.4a9.6 9.6 0 0 1 9.6 9.6v3.712a9.6 9.6 0 0 1-9.6 9.6h-198.4a9.6 9.6 0 0 1-9.6-9.6v-3.712a9.6 9.6 0 0 1 9.6-9.6z" fill="#D9D9D9" p-id="8879"></path><path d="M731.2128 314.624c2.3296 0 4.6208 0.1664 6.8864 0.4736l94.8352 183.296 0.4352 1.0624a6.4 6.4 0 0 1-5.1072 8.192l-1.024 0.0768H756.992l-1.4976 0.0896a12.8 12.8 0 0 0-11.2256 11.2256l-0.0768 1.4848v59.9808l-0.0768 2.2528a38.4 38.4 0 0 1-36.0704 36.0832l-2.2528 0.064H316.9536l-2.2656-0.064a38.1952 38.1952 0 0 1-20.3648-7.296v-61.2096H278.528v-35.712l-0.0768-1.4976a12.8 12.8 0 0 0-11.2256-11.2256l-1.4848-0.0768h-52.6464l84.8384-159.9872a51.2 51.2 0 0 1 45.2224-27.2128h388.0448z" fill="#F6F8FA" p-id="8880"></path><path d="M401.0752 506.1376c3.9424-7.7568 7.8976-15.2704 11.84-22.5408l-8.448-4.5824a960.6656 960.6656 0 0 0-11.9424 22.784l8.5504 4.3392z m24.32-44.736c4.4032-7.5264 8.8064-14.7712 13.2096-21.7088l-8.1024-5.1456c-4.48 7.04-8.9344 14.3872-13.4016 22.016l8.2944 4.8384z m27.3152-42.9184a462.08 462.08 0 0 1 15.0656-20.3776l-7.552-5.9136a471.6672 471.6672 0 0 0-15.3728 20.8l7.8592 5.504z m31.3216-39.7312c5.888-6.528 11.776-12.5056 17.6512-17.9584l-6.528-7.04c-6.0928 5.6576-12.1856 11.84-18.2528 18.56l7.1296 6.4384z m37.184-34.1376c7.04-5.12 14.08-9.4976 21.12-13.1072l-4.3904-8.5376c-7.488 3.84-14.9504 8.4736-22.3872 13.888l5.6576 7.7568z m43.9424-22.1696a102.464 102.464 0 0 1 24.1536-3.8272l-0.3328-9.6a112.064 112.064 0 0 0-26.4192 4.1856l2.5984 9.2416z m49.2544-1.536a118.5536 118.5536 0 0 1 23.3344 7.7824l3.9296-8.768a128.128 128.128 0 0 0-25.2288-8.3968l-2.048 9.3824z m46.0416 20.4672l1.408 0.9472c5.2736 5.888 9.8048 11.9296 12.7744 17.4464l8.448-4.544c-3.392-6.2976-8.384-12.992-15.0016-20.1344l-2.304-1.6896-5.3248 7.9744z m16.9344 39.2576c-1.5488 3.4048-4.416 6.5536-8.704 9.4336-1.8176 1.1648-3.456 2.176-4.992 3.1104l-4.48 2.624 4.7104 8.3584 3.776-2.176 6.2464-3.8912c5.76-3.8784 9.8304-8.3328 12.1728-13.4528l-8.7296-4.0064z m-40.704 25.7152a117.5808 117.5808 0 0 1-23.808 6.208l1.408 9.4976a127.1552 127.1552 0 0 0 25.7536-6.7072l-3.3408-8.9984z m-48.384 6.6816a90.112 90.112 0 0 1-23.552-5.9904l-3.584 8.896a99.712 99.712 0 0 0 26.048 6.6304l1.088-9.536z m-45.5424-18.2784a131.4176 131.4176 0 0 1-18.4704-16.384l-6.9888 6.5792c6.272 6.6816 12.9024 12.5568 19.8272 17.5872l5.632-7.7824z m-34.0096-35.6096a215.3728 215.3728 0 0 1-13.0688-21.3632l-8.4608 4.5568c4.2496 7.9104 8.8192 15.36 13.6576 22.2976l7.872-5.504z m-23.552-43.904a55.5392 55.5392 0 0 1 1.024-23.5392l-9.3184-2.3168a65.1008 65.1008 0 0 0-1.152 27.5968l9.4464-1.7408z m11.0336-46.592a115.136 115.136 0 0 1 15.2192-19.3024l-6.8992-6.6688a124.6976 124.6976 0 0 0-16.4736 20.9152l8.1536 5.056z m33.92-35.6096a196.608 196.608 0 0 1 20.992-13.5552l-4.6976-8.3712c-7.936 4.48-15.2832 9.216-22.016 14.2208l5.7344 7.7056zM573.0304 208.64c7.424-3.2384 15.2704-6.272 23.5008-9.0368l-3.072-9.088a302.464 302.464 0 0 0-24.2688 9.3312l3.84 8.7936z m48.128-16.32c7.936-2.048 16.1664-3.8912 24.6912-5.5168l-1.8176-9.4336c-8.704 1.664-17.1264 3.5584-25.2672 5.6448l2.3936 9.3056z m50.176-9.6512c8.1792-1.1136 16.576-2.048 25.216-2.7904l-0.832-9.5616c-8.7808 0.768-17.344 1.7024-25.6768 2.8288l1.28 9.5232z m51.0336-4.4544c8.2944-0.3584 16.768-0.5632 25.408-0.6016l-0.0512-9.6c-8.768 0.0384-17.3568 0.256-25.7792 0.6144l0.4224 9.6z m50.688-0.3072c8.3328 0.2432 16.8064 0.6144 25.4336 1.1392l0.5632-9.5872c-8.704-0.512-17.28-0.896-25.728-1.152l-0.256 9.6z" fill="#D9D9D9" p-id="8881"></path></svg>